<?xml version="1.0" encoding="utf-8"?>
<!-- Generator: Adobe Illustrator 21.1.0, SVG Export Plug-In . SVG Version: 6.00 Build 0)  -->
<svg version="1.1" id="Layer_1" xmlns="http://www.w3.org/2000/svg" xmlns:xlink="http://www.w3.org/1999/xlink" x="0px" y="0px"
	 viewBox="0 0 222 59" style="enable-background:new 0 0 222 59;" xml:space="preserve">
<style type="text/css">
	.st0{fill:none;stroke:#EAAE11;stroke-width:2;stroke-miterlimit:10;}
</style>
<g>
	<path d="M122,25c4.1,0,7.2,3,7.2,7c0,4-3.1,7-7.3,7h-5.6V25H122z M117.9,37.5h4.1c3.1,0,5.6-2.3,5.6-5.5c0-3.1-2.5-5.5-5.6-5.5h-4
		V37.5z"/>
	<path d="M137.7,26.5v4.6h7.1v1.5h-7.1v4.8h8.2V39h-9.8V25h9.5v1.5H137.7z"/>
	<path d="M161.7,26.2l-0.7,1.5c-1.3-0.8-2.7-1.2-3.9-1.2c-1.8,0-3,0.7-3,1.9c0,3.6,7.9,1.7,7.9,6.8c0,2.3-2.1,3.8-5.1,3.8
		c-2,0-4-0.9-5.4-2.1l0.7-1.4c1.3,1.3,3.1,2,4.7,2c2,0,3.3-0.8,3.3-2.2c0-3.7-7.9-1.7-7.9-6.7c0-2.2,1.9-3.6,4.8-3.6
		C158.9,24.9,160.6,25.5,161.7,26.2z"/>
	<path d="M169.4,39V25h1.6v14H169.4z"/>
	<path d="M190.4,32.2v5.1c-1.4,1.1-3.3,1.8-5.2,1.8c-4.1,0-7.3-3.1-7.3-7.1c0-3.9,3.3-7,7.4-7c1.9,0,3.8,0.7,5.2,1.9l-0.9,1.2
		c-1.1-1-2.7-1.6-4.2-1.6c-3.2,0-5.8,2.5-5.8,5.5c0,3.1,2.6,5.6,5.8,5.6c1.3,0,2.6-0.4,3.7-1.2v-4.2H190.4z"/>
	<path d="M208.3,39l-8.4-11.2V39h-1.6V25h1.7l8.4,11.3V25h1.6v14H208.3z"/>
</g>
<line class="st0" x1="104.2" y1="46.7" x2="104.2" y2="17.4"/>
<g>
	<path d="M53.3,33.5c7-2.5,11.5-7,11.5-10.5c0.1-3.5-2-5.4-6.4-5.4c-4.6,0-9,2.2-12.5,6.4c-3.3,3.5-5.1,8.2-5.2,13.1
		c-0.5,0.4-1.2,1.1-2,1.9c-1,1-1.7,1.7-2.5,1.8c-0.5,0.1-0.6-1.1-0.6-2.2c0-4,3.2-16.8,5.1-19.6c-1.5-0.8-3-1.2-4.6-1.2
		c-1.3,0-2.4,0.5-3.3,1.3c-1.3-1-3.1-1.4-5.1-1.4c-8.3,0-16.1,11.4-16.3,21.4c0,4.2,1.4,7.3,5.6,7.3h0.6c3.4-0.2,7.2-3.4,11.1-9.7
		c-0.2,1.1-0.3,2.9-0.3,4.2c0,3.7,1.8,5.5,4.6,5.5c2.6,0,6.2-2.9,8-5.9c0.9,4,4.2,6,9.5,6c2.9,0,5.6-0.6,8.2-1.8
		c1.7-0.7,3-1.7,3.9-2.8c0.9-1.2,1-2.8,0.3-4.1c-2.7,2.6-5.5,4.2-9.2,4.5c-2,0.3-3.8-0.7-5-2.4c-0.5-0.7-0.6-1.8-0.6-3
		C48.3,35.6,51.7,34.1,53.3,33.5z M25.4,36.1c-2,3-3.6,4.8-4.7,4.8s-1.6-0.9-1.7-2.7c0-6.7,4.1-16.6,8.3-16.6c1.6,0,3.6,0.9,4.1,3
		C30.4,27.7,28.1,32.3,25.4,36.1z M49.3,31.1c1.5-6.4,3.8-10,6.6-10c1.9,0,2.5,1.6,2,3.4c-0.5,1.8-1.4,3.5-4.8,5.3
		c-1.9,1-3.5,1.7-4.3,3.6C49.1,32,49.3,31.1,49.3,31.1z"/>
	<path d="M82.6,17.6c-4.5,0-8.5,2.2-11.7,5.8c-3.3,3.8-5,8.3-5,13.3c0,6,3.8,9.6,9.5,9.6c9.2,0,16.8-9.8,16.8-19.5
		C92,21.1,88.2,17.6,82.6,17.6z M76.8,42.6c-2.5,0-3.4-2.2-3.4-5.3c0-5.9,3-15.9,7.6-15.9c2.5,0,3.3,2.3,3.3,5.4
		C84.3,32.8,81.4,42.6,76.8,42.6z"/>
</g>
</svg>
